<svg width="48" height="48" viewBox="0 0 48 48" fill="none" xmlns="http://www.w3.org/2000/svg">
    <path fill-rule="evenodd" clip-rule="evenodd" d="M0 17.5569L14.4898 35.9305L0 48V17.5569Z" fill="#F15A23" />
    <path fill-rule="evenodd" clip-rule="evenodd" d="M5.83163 48L16.7345 38.8316L24.2703 48H5.83163Z" fill="#F15A23" />
    <path fill-rule="evenodd" clip-rule="evenodd"
        d="M0 7.72537L3.7813 12.5335L19.3286 32.0624L24.3665 28.0297C24.3665 28.0297 20.1841 23.0801 17.3758 17.5569C11.8853 6.75834 15.7725 0.0351562 15.7725 0.0351562H0V7.72537Z"
        fill="#F15A23" />
    <path fill-rule="evenodd" clip-rule="evenodd"
        d="M21.5446 35.0771L26.6753 30.8171C26.6753 30.8171 31.5755 37.3012 37.2575 38.8316C44.7033 40.8371 48 35.9305 48 35.9305V48H31.6457L35.3335 44.795C35.3335 44.795 33.4094 46.0843 28.7038 42.8079C25.9265 40.8742 21.5446 35.0771 21.5446 35.0771Z"
        fill="#F15A23" />
    <path fill-rule="evenodd" clip-rule="evenodd"
        d="M22.0163 0C22.0163 0 20.3795 2.24135 21.5446 7.72539C22.7899 13.5871 27.7426 19.791 27.731 19.6521C27.731 19.6521 28.0495 13.4919 31.6457 9.87685C39.3113 2.17134 48 6.75836 48 6.75836V0.0351681L22.0163 0Z"
        fill="#F15A23" />
    <path fill-rule="evenodd" clip-rule="evenodd"
        d="M48 14.8816C48 14.8816 43.1523 10.7076 38.9377 10.7076C33.5464 10.7076 30.6035 15.3865 30.6035 18.7805C30.6035 23.7241 32.9641 26.471 35.3335 28.8527C38.7383 32.2753 42.8806 35.9668 48 32.9957C48 27.3726 48 14.8816 48 14.8816Z"
        fill="#F15A23" />
</svg>